<mxfile host="app.diagrams.net" modified="2021-11-19T08:29:12.837Z" agent="5.0 (Windows NT 10.0; Win64; x64) AppleWebKit/537.36 (KHTML, like Gecko) Chrome/96.0.4664.45 Safari/537.36" etag="gFAn70-eeP1syJcKFVaq" version="15.8.2" type="github">
  <diagram id="C5RBs43oDa-KdzZeNtuy" name="Page-1">
    <mxGraphModel dx="1422" dy="794" grid="1" gridSize="10" guides="1" tooltips="1" connect="1" arrows="1" fold="1" page="1" pageScale="1" pageWidth="827" pageHeight="1169" math="0" shadow="0">
      <root>
        <mxCell id="WIyWlLk6GJQsqaUBKTNV-0" />
        <mxCell id="WIyWlLk6GJQsqaUBKTNV-1" parent="WIyWlLk6GJQsqaUBKTNV-0" />
        <mxCell id="WIyWlLk6GJQsqaUBKTNV-2" value="" style="rounded=0;html=1;jettySize=auto;orthogonalLoop=1;fontSize=11;endArrow=block;endFill=0;endSize=8;strokeWidth=1;shadow=0;labelBackgroundColor=none;edgeStyle=orthogonalEdgeStyle;" parent="WIyWlLk6GJQsqaUBKTNV-1" source="WIyWlLk6GJQsqaUBKTNV-3" target="WIyWlLk6GJQsqaUBKTNV-6" edge="1">
          <mxGeometry relative="1" as="geometry" />
        </mxCell>
        <mxCell id="WIyWlLk6GJQsqaUBKTNV-3" value="Pendaftaran" style="rounded=1;whiteSpace=wrap;html=1;fontSize=12;glass=0;strokeWidth=1;shadow=0;" parent="WIyWlLk6GJQsqaUBKTNV-1" vertex="1">
          <mxGeometry x="160" y="80" width="120" height="40" as="geometry" />
        </mxCell>
        <mxCell id="WIyWlLk6GJQsqaUBKTNV-4" value="Diterima" style="rounded=0;html=1;jettySize=auto;orthogonalLoop=1;fontSize=11;endArrow=block;endFill=0;endSize=8;strokeWidth=1;shadow=0;labelBackgroundColor=none;edgeStyle=orthogonalEdgeStyle;" parent="WIyWlLk6GJQsqaUBKTNV-1" source="WIyWlLk6GJQsqaUBKTNV-6" edge="1">
          <mxGeometry x="-0.5" y="30" relative="1" as="geometry">
            <mxPoint as="offset" />
            <mxPoint x="220" y="289.9999999999999" as="targetPoint" />
          </mxGeometry>
        </mxCell>
        <mxCell id="WIyWlLk6GJQsqaUBKTNV-5" value="Ditolak" style="edgeStyle=orthogonalEdgeStyle;rounded=0;html=1;jettySize=auto;orthogonalLoop=1;fontSize=11;endArrow=block;endFill=0;endSize=8;strokeWidth=1;shadow=0;labelBackgroundColor=none;entryX=0.5;entryY=0;entryDx=0;entryDy=0;" parent="WIyWlLk6GJQsqaUBKTNV-1" source="WIyWlLk6GJQsqaUBKTNV-6" target="WIyWlLk6GJQsqaUBKTNV-11" edge="1">
          <mxGeometry y="40" relative="1" as="geometry">
            <mxPoint as="offset" />
            <mxPoint x="320" y="210" as="targetPoint" />
          </mxGeometry>
        </mxCell>
        <mxCell id="WIyWlLk6GJQsqaUBKTNV-6" value="Seleksi Pendaftaran" style="rhombus;whiteSpace=wrap;html=1;shadow=0;fontFamily=Helvetica;fontSize=12;align=center;strokeWidth=1;spacing=6;spacingTop=-4;" parent="WIyWlLk6GJQsqaUBKTNV-1" vertex="1">
          <mxGeometry x="170" y="170" width="100" height="80" as="geometry" />
        </mxCell>
        <mxCell id="WIyWlLk6GJQsqaUBKTNV-11" value="Selesai" style="rounded=1;whiteSpace=wrap;html=1;fontSize=12;glass=0;strokeWidth=1;shadow=0;" parent="WIyWlLk6GJQsqaUBKTNV-1" vertex="1">
          <mxGeometry x="360" y="900" width="120" height="40" as="geometry" />
        </mxCell>
        <mxCell id="SO2wjcrts17KnVxoq78d-3" value="Daftar Ulang" style="rounded=0;whiteSpace=wrap;html=1;" vertex="1" parent="WIyWlLk6GJQsqaUBKTNV-1">
          <mxGeometry x="160" y="290" width="120" height="60" as="geometry" />
        </mxCell>
        <mxCell id="SO2wjcrts17KnVxoq78d-4" value="KRS" style="rounded=0;whiteSpace=wrap;html=1;" vertex="1" parent="WIyWlLk6GJQsqaUBKTNV-1">
          <mxGeometry x="160" y="370" width="120" height="60" as="geometry" />
        </mxCell>
        <mxCell id="SO2wjcrts17KnVxoq78d-5" value="Proses Kuliah" style="rounded=0;whiteSpace=wrap;html=1;" vertex="1" parent="WIyWlLk6GJQsqaUBKTNV-1">
          <mxGeometry x="160" y="450" width="120" height="60" as="geometry" />
        </mxCell>
        <mxCell id="SO2wjcrts17KnVxoq78d-6" value="UTS/UAS" style="rounded=0;whiteSpace=wrap;html=1;" vertex="1" parent="WIyWlLk6GJQsqaUBKTNV-1">
          <mxGeometry x="160" y="530" width="120" height="60" as="geometry" />
        </mxCell>
        <mxCell id="SO2wjcrts17KnVxoq78d-9" value="Sidang KP" style="rhombus;whiteSpace=wrap;html=1;" vertex="1" parent="WIyWlLk6GJQsqaUBKTNV-1">
          <mxGeometry x="170" y="620" width="100" height="100" as="geometry" />
        </mxCell>
        <mxCell id="SO2wjcrts17KnVxoq78d-10" value="Sidang Skripsi" style="rhombus;whiteSpace=wrap;html=1;" vertex="1" parent="WIyWlLk6GJQsqaUBKTNV-1">
          <mxGeometry x="170" y="760" width="100" height="100" as="geometry" />
        </mxCell>
        <mxCell id="SO2wjcrts17KnVxoq78d-11" value="" style="endArrow=classic;html=1;rounded=0;" edge="1" parent="WIyWlLk6GJQsqaUBKTNV-1" target="SO2wjcrts17KnVxoq78d-4">
          <mxGeometry width="50" height="50" relative="1" as="geometry">
            <mxPoint x="220" y="350" as="sourcePoint" />
            <mxPoint x="270" y="300" as="targetPoint" />
          </mxGeometry>
        </mxCell>
        <mxCell id="SO2wjcrts17KnVxoq78d-13" value="" style="endArrow=classic;html=1;rounded=0;" edge="1" parent="WIyWlLk6GJQsqaUBKTNV-1">
          <mxGeometry width="50" height="50" relative="1" as="geometry">
            <mxPoint x="219.76" y="429.9999999999998" as="sourcePoint" />
            <mxPoint x="219.76" y="449.9999999999998" as="targetPoint" />
          </mxGeometry>
        </mxCell>
        <mxCell id="SO2wjcrts17KnVxoq78d-14" value="" style="endArrow=classic;html=1;rounded=0;" edge="1" parent="WIyWlLk6GJQsqaUBKTNV-1">
          <mxGeometry width="50" height="50" relative="1" as="geometry">
            <mxPoint x="219.76" y="509.9999999999998" as="sourcePoint" />
            <mxPoint x="219.76" y="529.9999999999998" as="targetPoint" />
          </mxGeometry>
        </mxCell>
        <mxCell id="SO2wjcrts17KnVxoq78d-15" value="" style="endArrow=classic;html=1;rounded=0;entryX=0.5;entryY=0;entryDx=0;entryDy=0;" edge="1" parent="WIyWlLk6GJQsqaUBKTNV-1" target="SO2wjcrts17KnVxoq78d-9">
          <mxGeometry width="50" height="50" relative="1" as="geometry">
            <mxPoint x="219.76" y="589.9999999999998" as="sourcePoint" />
            <mxPoint x="219.76" y="609.9999999999998" as="targetPoint" />
          </mxGeometry>
        </mxCell>
        <mxCell id="SO2wjcrts17KnVxoq78d-33" style="edgeStyle=orthogonalEdgeStyle;rounded=0;orthogonalLoop=1;jettySize=auto;html=1;exitX=1;exitY=0.5;exitDx=0;exitDy=0;entryX=0;entryY=0.5;entryDx=0;entryDy=0;" edge="1" parent="WIyWlLk6GJQsqaUBKTNV-1" source="SO2wjcrts17KnVxoq78d-17" target="WIyWlLk6GJQsqaUBKTNV-11">
          <mxGeometry relative="1" as="geometry" />
        </mxCell>
        <mxCell id="SO2wjcrts17KnVxoq78d-17" value="Wisuda" style="rounded=0;whiteSpace=wrap;html=1;" vertex="1" parent="WIyWlLk6GJQsqaUBKTNV-1">
          <mxGeometry x="160" y="890" width="120" height="60" as="geometry" />
        </mxCell>
        <mxCell id="SO2wjcrts17KnVxoq78d-25" value="Tidak Lulus" style="rounded=0;html=1;jettySize=auto;orthogonalLoop=1;fontSize=11;endArrow=block;endFill=0;endSize=8;strokeWidth=1;shadow=0;labelBackgroundColor=none;edgeStyle=orthogonalEdgeStyle;" edge="1" parent="WIyWlLk6GJQsqaUBKTNV-1">
          <mxGeometry x="-0.1818" y="-30" relative="1" as="geometry">
            <mxPoint as="offset" />
            <mxPoint x="270" y="670" as="sourcePoint" />
            <mxPoint x="220" y="600" as="targetPoint" />
            <Array as="points">
              <mxPoint x="320" y="670" />
              <mxPoint x="320" y="600" />
            </Array>
          </mxGeometry>
        </mxCell>
        <mxCell id="SO2wjcrts17KnVxoq78d-26" value="Tidak Lulus" style="rounded=0;html=1;jettySize=auto;orthogonalLoop=1;fontSize=11;endArrow=block;endFill=0;endSize=8;strokeWidth=1;shadow=0;labelBackgroundColor=none;edgeStyle=orthogonalEdgeStyle;" edge="1" parent="WIyWlLk6GJQsqaUBKTNV-1">
          <mxGeometry x="-0.1818" y="-30" relative="1" as="geometry">
            <mxPoint as="offset" />
            <mxPoint x="270" y="810" as="sourcePoint" />
            <mxPoint x="220" y="740" as="targetPoint" />
            <Array as="points">
              <mxPoint x="320" y="810" />
              <mxPoint x="320" y="740" />
            </Array>
          </mxGeometry>
        </mxCell>
        <mxCell id="SO2wjcrts17KnVxoq78d-27" value="Lulus" style="rounded=0;html=1;jettySize=auto;orthogonalLoop=1;fontSize=11;endArrow=block;endFill=0;endSize=8;strokeWidth=1;shadow=0;labelBackgroundColor=none;edgeStyle=orthogonalEdgeStyle;entryX=0.5;entryY=0;entryDx=0;entryDy=0;" edge="1" parent="WIyWlLk6GJQsqaUBKTNV-1" target="SO2wjcrts17KnVxoq78d-17">
          <mxGeometry x="-0.3334" y="-20" relative="1" as="geometry">
            <mxPoint as="offset" />
            <mxPoint x="219.82999999999998" y="860" as="sourcePoint" />
            <mxPoint x="219.82999999999998" y="880" as="targetPoint" />
            <Array as="points">
              <mxPoint x="220" y="870" />
            </Array>
          </mxGeometry>
        </mxCell>
        <mxCell id="SO2wjcrts17KnVxoq78d-28" value="Lulus" style="rounded=0;html=1;jettySize=auto;orthogonalLoop=1;fontSize=11;endArrow=block;endFill=0;endSize=8;strokeWidth=1;shadow=0;labelBackgroundColor=none;edgeStyle=orthogonalEdgeStyle;entryX=0.5;entryY=0;entryDx=0;entryDy=0;" edge="1" parent="WIyWlLk6GJQsqaUBKTNV-1" target="SO2wjcrts17KnVxoq78d-10">
          <mxGeometry x="-0.3334" y="-20" relative="1" as="geometry">
            <mxPoint as="offset" />
            <mxPoint x="219.85999999999993" y="720" as="sourcePoint" />
            <mxPoint x="220" y="750" as="targetPoint" />
            <Array as="points" />
          </mxGeometry>
        </mxCell>
      </root>
    </mxGraphModel>
  </diagram>
</mxfile>
